<?xml version="1.0" encoding="utf-8"?>
<!-- Generator: Adobe Illustrator 28.3.0, SVG Export Plug-In . SVG Version: 6.00 Build 0)  -->
<svg version="1.1" id="Layer_1" xmlns="http://www.w3.org/2000/svg" xmlns:xlink="http://www.w3.org/1999/xlink" x="0px" y="0px"
	 viewBox="0 0 1190.55 841.89" style="enable-background:new 0 0 1190.55 841.89;" xml:space="preserve">
<style type="text/css">
	.st0{fill:#FFFFFF;}
	.st1{fill:none;stroke:#166636;stroke-width:8.6789;stroke-miterlimit:10;}
	.st2{fill:none;stroke:#166636;stroke-width:9.4927;stroke-miterlimit:10;}
</style>
<rect class="st0" width="1190.55" height="841.89"/>
<g>
	<path class="st1" d="M583.54,365.8c8.71,2.71,14.42,7.04,16.11,8.38c7.38,5.84,10.96,12.26,14.18,18.05
		c3.04,5.46,5.76,13.12,7.37,23.17c1.84,11.56,0.29,18.86-1.57,25.82c-3.33,12.48-8.72,21.13-10.96,24.49
		c-7.4,11.13-15.87,17.9-20.63,21.27c-3.15,2.23-13.53,9.24-29.01,12.89c-6.35,1.5-19.69,4.49-36.1,0.64
		c-10.2-2.39-17.48-6.47-20.63-8.38c-11.44-6.95-17.81-15.33-21.27-19.98c-3.74-5.02-10.86-14.8-14.18-29.65
		c-1.2-5.38-4.44-20.78,1.93-38.68c1.62-4.56,5.33-14.62,14.83-23.85c2.5-2.43,22.19-21.1,41.25-16.11
		c9.74,2.55,12.02,9.36,20.63,8.38c7.41-0.85,8.02-6.16,17.4-8.38C571.1,361.93,578.29,364.17,583.54,365.8z"/>
	<path class="st1" d="M508.77,389.01c-2.77,1.38-9.66,5.28-14.18,13.54c-6.28,11.48-3.26,22.79-2.58,25.14"/>
	<path class="st1" d="M509.41,330.99c-6.88-2.4-18.36-7.55-27.72-18.69c-11.82-14.07-18.69-35.84-12.25-41.25
		c5.71-4.8,21,3.97,30.94,9.67c5.29,3.03,13.25,7.59,20.63,15.47c19.99,21.32,21.11,51.32,23.21,50.92
		c1.37-0.26-2.42-12.51,3.22-25.78c0.67-1.57,3.78-8.59,10.96-14.83c6.42-5.57,12.45-7.34,22.56-10.31
		c9.94-2.92,11.68-1.75,12.25-1.29c3.94,3.19,1.66,13.08-1.93,19.34c-0.73,1.27-3.53,5.91-10.31,10.31
		c-10.75,6.99-22.26,7.39-28.36,7.09"/>
	<path class="st1" d="M640.26,505.68c-0.24,23.52-2.5,32.3,1.29,34.16c4.11,2.02,12.3-6.72,18.69-13.54
		c7.51-8.01,12.86-15.77,19.98-27.72c5.81-9.74,12.39-20.86,19.98-37.39c8.33-18.14,12.5-27.2,14.18-38.68
		c1.55-10.61,1.68-18.95,0-30.3c-2.44-16.52-5.15-20.28-6.56-22.56c-5.08-8.23-11.25-12.73-15.36-14.82
		c-4.29-2.19-11.46-5.84-21.27-5.16c-3.55,0.25-10.83,1.3-18.05,6.45c-2.19,1.56-6.32,4.43-10.1,14.02
		c-1.76,4.46-3.72,10.04-3.43,22.72c0.2,8.59-0.02,17.19,0,25.78c0.03,11.91-0.04,10.94,0,27.72c0.03,13.09-0.08,13.46,0,17.4
		c0.24,11.57,0.47,14.44,0.53,22.16C640.22,495.16,640.36,496.3,640.26,505.68z"/>
	<path class="st1" d="M633.23,277.19c5.56-3.32,12.77,0.41,22.42,7.1c6.28,4.35,10.29,8.76,14.36,14.44
		c6.57,9.17,7,21.72,8.53,21.72c1.65,0,4.39-10.44,11.76-20.45c2.45-3.33,9.1-12.26,14.81-16.3c11.08-7.83,13.5-9.33,18.32-6.11
		c3.92,2.61,2.67,11.04,1.63,17.96c-1.51,10.1-5.77,16.97-6.94,18.78c-1.89,2.91-7.16,10.85-17.55,15.92
		c-9.69,4.73-18.39,4.33-23.68,4.08c-3.99-0.18-11.69-0.62-20.41-4.9c-8.49-4.16-13.46-9.77-16.33-13.06
		c-3.45-3.97-7.26-8.35-9.39-15.1C628.45,293.89,627.24,280.76,633.23,277.19z"/>
	<line class="st1" x1="692.71" y1="396.91" x2="705.8" y2="396.91"/>
	<line class="st1" x1="680.09" y1="414.29" x2="705.8" y2="414.29"/>
	<line class="st1" x1="685.33" y1="430.72" x2="705.8" y2="430.72"/>
	<path class="st2" d="M376,392.86l91.4,158.31c7.52,13.03,21.43,21.06,36.47,21.06h182.8c15.05,0,28.95-8.03,36.47-21.06
		l91.4-158.31"/>
</g>
</svg>
